# xmcd
#
# Track frame offsets: 
#        150
#        12888
#        27536
#        40739
#        53649
#        67075
#        79994
#        92533
#        105355
#        116691
#        129740
#        143337
#        156500
#        168645
#        179146
#        192349
#        205523
#        217168
#        228321
#        243274
#
# Disc length: 3439 seconds
#
# Revision: 0
# Processed by: cddbd v1.5.2PL0 Copyright (c) Steve Scherf et al.
# Submitted via: ExactAudioCopy v1.0b1
#
DISCID=1a0d6d14
DTITLE=Various Artist - Classic Soul [CD 1)
DYEAR=2004
DGENRE=Soul
TTITLE0=Diana Ross and The Supremes - Reflections
TTITLE1=Marvin Gaye - I Heard It Through The Grapevine
TTITLE2=The Temptations - My Girl
TTITLE3=Martha Reeves and The Vandellas - Jimmy Mack
TTITLE4=Ben E. King - Stand By Me
TTITLE5=The Isley Brothers - This Old Heart Of Mine
TTITLE6=James Brown - It's A Man's Man's Man's World
TTITLE7=Four Tops - If I Were A Carpenter
TTITLE8=The Velvelettes - He Was Ready
TTITLE9=Coutours - Do You Love Me
TTITLE10=Smokey Robinson and The Miracles - The Tracks Of My Tears
TTITLE11=Jimmy Ruffin - What Becomes Of The Broken Hearted
TTITLE12=Bobby Hebb - Sunny
TTITLE13=Arthur Conley - Sweet Soul Music
TTITLE14=Fontella Bass - Rescue Me
TTITLE15=Jackson 5 - I Want You Back
TTITLE16=Jerry Butler - Only The Strong Survive
TTITLE17=Mary Wells - The One Who Really Loves You
TTITLE18=James and Bobby Purify - I'm Your Puppet
TTITLE19=Undisputed Truth - Smiling Faces Sometimes
EXTD=
EXTT0=
EXTT1=
EXTT2=
EXTT3=
EXTT4=
EXTT5=
EXTT6=
EXTT7=
EXTT8=
EXTT9=
EXTT10=
EXTT11=
EXTT12=
EXTT13=
EXTT14=
EXTT15=
EXTT16=
EXTT17=
EXTT18=
EXTT19=
PLAYORDER=
